<svg xmlns="http://www.w3.org/2000/svg" id="cerrar" width="13.632" height="13.634" viewBox="0 0 13.632 13.634">
    <path id="Trazado_1379" fill="#0e3a89" d="M142.308 129.174a.844.844 0 0 0-1.2 0l-5.369 5.369-5.369-5.369a.847.847 0 0 0-1.2 1.2l5.369 5.369-5.369 5.369a.85.85 0 0 0 .6 1.449.826.826 0 0 0 .6-.251l5.369-5.369 5.369 5.369a.852.852 0 0 0 .6.251.816.816 0 0 0 .6-.251.844.844 0 0 0 0-1.2l-5.356-5.369 5.369-5.369a.844.844 0 0 0-.013-1.198z" data-name="Trazado 1379" transform="translate(-128.925 -128.925)"/>
</svg>
