<svg xmlns="http://www.w3.org/2000/svg" width="60" height="60" viewBox="0 0 60 60">
    <g id="error" transform="translate(-249 -1507)">
        <g id="Trazado_1621" fill="none" stroke="none" data-name="Trazado 1621">
            <path d="M30 0A30 30 0 1 1 0 30 30 30 0 0 1 30 0z" transform="translate(249 1507)"/>
            <path fill="#e83030" d="M30 3.5c-3.579 0-7.05.7-10.314 2.081-3.155 1.335-5.99 3.246-8.424 5.68-2.435 2.436-4.346 5.27-5.68 8.425C4.2 22.951 3.5 26.421 3.5 30c0 3.579.7 7.05 2.081 10.314 1.335 3.155 3.246 5.99 5.68 8.424 2.436 2.435 5.27 4.346 8.425 5.68C22.951 55.8 26.421 56.5 30 56.5c3.579 0 7.05-.7 10.314-2.081 3.155-1.335 5.99-3.246 8.424-5.68 2.435-2.436 4.346-5.27 5.68-8.425C55.8 37.049 56.5 33.579 56.5 30c0-3.579-.7-7.05-2.081-10.314-1.335-3.155-3.246-5.99-5.68-8.424-2.436-2.435-5.27-4.346-8.425-5.68C37.049 4.2 33.579 3.5 30 3.5M30 0c16.569 0 30 13.431 30 30 0 16.569-13.431 30-30 30C13.431 60 0 46.569 0 30 0 13.431 13.431 0 30 0z" transform="translate(249 1507)"/>
        </g>
        <g id="Grupo_971" data-name="Grupo 971" transform="translate(266.25 1524.25)">
            <g id="Grupo_578" data-name="Grupo 578">
                <path id="Trazado_1379" fill="#e83030" d="M153.576 129.384a1.555 1.555 0 0 0-2.207 0l-9.889 9.889-9.889-9.889a1.56 1.56 0 0 0-2.207 2.207l9.889 9.889-9.889 9.889a1.565 1.565 0 0 0 1.1 2.669 1.522 1.522 0 0 0 1.1-.462l9.889-9.889 9.889 9.889a1.57 1.57 0 0 0 1.1.462 1.5 1.5 0 0 0 1.1-.462 1.555 1.555 0 0 0 0-2.207l-9.866-9.889 9.889-9.889a1.555 1.555 0 0 0-.009-2.207z" data-name="Trazado 1379" transform="translate(-128.925 -128.925)"/>
            </g>
        </g>
    </g>
</svg>
