<svg xmlns="http://www.w3.org/2000/svg" width="60" height="60" viewBox="0 0 60 60">
    <g id="exito" fill="none" transform="translate(-136 -1507)">
        <g id="Trazado_1272" stroke="none" data-name="Trazado 1272">
            <path d="M30 0A30 30 0 1 1 0 30 30 30 0 0 1 30 0z" transform="translate(136 1507)"/>
            <path fill="#16be91" d="M30 3.5c-3.579 0-7.05.7-10.314 2.081-3.155 1.335-5.99 3.246-8.424 5.68-2.435 2.436-4.346 5.27-5.68 8.425C4.2 22.951 3.5 26.421 3.5 30c0 3.579.7 7.05 2.081 10.314 1.335 3.155 3.246 5.99 5.68 8.424 2.436 2.435 5.27 4.346 8.425 5.68C22.951 55.8 26.421 56.5 30 56.5c3.579 0 7.05-.7 10.314-2.081 3.155-1.335 5.99-3.246 8.424-5.68 2.435-2.436 4.346-5.27 5.68-8.425C55.8 37.049 56.5 33.579 56.5 30c0-3.579-.7-7.05-2.081-10.314-1.335-3.155-3.246-5.99-5.68-8.424-2.436-2.435-5.27-4.346-8.425-5.68C37.049 4.2 33.579 3.5 30 3.5M30 0c16.569 0 30 13.431 30 30 0 16.569-13.431 30-30 30C13.431 60 0 46.569 0 30 0 13.431 13.431 0 30 0z" transform="translate(136 1507)"/>
        </g>
        <path id="Trazado_1273" stroke="#16be91" stroke-linecap="round" stroke-linejoin="round" stroke-width="4px" d="M-15881.937-15040.586l6.316 6.872 16.986-19.775" data-name="Trazado 1273" transform="translate(16035.988 16580.18)"/>
    </g>
</svg>
