<svg xmlns="http://www.w3.org/2000/svg" width="23.213" height="19.478" viewBox="0 0 23.213 19.478">
    <g id="haberes" transform="translate(-.347 .501)">
        <g id="Group_44" data-name="Group 44" transform="translate(11.505 1.446)">
            <path id="Stroke_42" fill="#0e3a89" stroke="#0e3a89" stroke-miterlimit="10" stroke-width="0.25px" d="M1.258 3.436h.863a.642.642 0 0 1 0 1.285H.567a.311.311 0 0 0 0 .621h.813v.612a.309.309 0 1 0 .618 0v-.612h.126a1.264 1.264 0 0 0 0-2.528h-.863a.642.642 0 0 1 0-1.284h1.526a.311.311 0 0 0 0-.622H2v-.6a.31.31 0 1 0-.619 0v.6h-.123a1.262 1.262 0 0 0 0 2.524z" data-name="Stroke 42"/>
        </g>
        <path id="Stroke_45" fill="none" stroke="#0e3a89" stroke-miterlimit="10" d="M9.3 4.875A4.653 4.653 0 1 1 4.875.005 4.653 4.653 0 0 1 9.3 4.875z" data-name="Stroke 45" transform="translate(8.596)"/>
        <g id="Group_51" data-name="Group 51" transform="translate(.447 11.142)">
            <path id="Clip_50" fill="#0e3a89" stroke="#0e3a89" stroke-width="0.2px" d="M2.3 7.735a.236.236 0 0 1-.055 0 .035.035 0 0 1-.019 0 .075.075 0 0 1-.026-.016H2.174L2.153 7.7H2.13a.019.019 0 0 1-.01-.005.255.255 0 0 1-.03-.017.032.032 0 0 0-.018-.01l-.014-.009-.015-.009-.01-.008-.013-.015L2 7.6l-.019-.019a.087.087 0 0 1-.016-.024.045.045 0 0 1-.007-.009.045.045 0 0 0-.007-.009h-.005a.016.016 0 0 0 0-.01l-.016-.016a.15.15 0 0 1-.012-.026l-1.876-4c0-.009-.005-.016-.008-.023l-.005-.013a.221.221 0 0 0-.015-.038.154.154 0 0 1 0-.043.12.12 0 0 0 0-.021.12.12 0 0 1 0-.021A.116.116 0 0 1 0 3.286a.122.122 0 0 1 .005-.043.123.123 0 0 1 .007-.033v-.009a.126.126 0 0 0 0-.019.063.063 0 0 1 .006-.019.151.151 0 0 1 .017-.037.154.154 0 0 1 .02-.038.084.084 0 0 1 .023-.033.082.082 0 0 0 .022-.017.091.091 0 0 1 .01-.015A.181.181 0 0 1 .141 3l.012-.012.016-.017a.087.087 0 0 1 .022-.014l.016-.009.009-.006a.083.083 0 0 1 .024-.017L5.41.371a.115.115 0 0 1 .046-.018A6.92 6.92 0 0 1 7.595 0a4.43 4.43 0 0 1 1.826.357l3.848 1.394.012.005.021.009a1.267 1.267 0 0 1 .727 1.417 1.264 1.264 0 0 1-1.2 1.037h-.008c-.039 0-.223-.009-1.96-.122-.756-.046-1.551-.1-1.621-.1a.425.425 0 0 1 .009-.849c.023 0 .023 0 1.663.1l1.527.1.367.024a.412.412 0 0 0 .384-.347.421.421 0 0 0-.234-.479L9.117 1.151a.119.119 0 0 0-.033-.014A3.569 3.569 0 0 0 7.6.849a6.388 6.388 0 0 0-1.832.289h-.006L3.46 2.277l1.266 2.99a2.561 2.561 0 0 1 2.085-.277l5.165 1.554a2.378 2.378 0 0 0 .7.1 2.433 2.433 0 0 0 1.165-.3l8.089-4.389a.373.373 0 0 0 .174-.493.363.363 0 0 0-.33-.246.444.444 0 0 0-.115.016l-6.285 2.1a.413.413 0 0 1-.134.022.426.426 0 0 1-.138-.829L21.4.423a.042.042 0 0 1 .023 0 1.316 1.316 0 0 1 .345-.047 1.2 1.2 0 0 1 1.123.779 1.218 1.218 0 0 1-.558 1.558l-8.094 4.4a3.277 3.277 0 0 1-1.566.4 3.22 3.22 0 0 1-.941-.14L6.563 5.816a1.739 1.739 0 0 0-.494-.072 1.679 1.679 0 0 0-.907.264L2.527 7.67a.156.156 0 0 1-.037.019h-.034l-.017.008-.016.007h-.019a.065.065 0 0 1-.016.005.066.066 0 0 0-.016.005h-.045zm.443-5.125L.851 3.5l1.624 3.4L4.1 5.745z" data-name="Clip 50"/>
        </g>
    </g>
</svg>
