<svg xmlns="http://www.w3.org/2000/svg" width="17.031" height="19.596" viewBox="0 0 17.031 19.596">
    <defs>
        <style>
            .cls-1{fill:#0e3a89}
        </style>
    </defs>
    <g id="Grupo_1086" data-name="Grupo 1086" transform="translate(-233.298 -119.598)">
        <path id="Trazado_1664" d="M246.369 125.01h-9.111a.628.628 0 0 0 0 1.226h9.111a.628.628 0 0 0 0-1.226z" class="cls-1" data-name="Trazado 1664"/>
        <path id="Trazado_1665" d="M246.369 128.319h-9.111a.629.629 0 0 0 0 1.227h9.111a.629.629 0 0 0 0-1.227z" class="cls-1" data-name="Trazado 1665"/>
        <path id="Trazado_1666" d="M246.369 131.629h-9.111a.628.628 0 0 0 0 1.226h9.111a.628.628 0 0 0 0-1.226z" class="cls-1" data-name="Trazado 1666"/>
        <path id="Trazado_1667" d="M246.369 134.938h-9.111a.628.628 0 0 0 0 1.226h9.111a.628.628 0 0 0 0-1.226z" class="cls-1" data-name="Trazado 1667"/>
        <path id="Trazado_1668" d="M248.69 121.137h-1.871a1.9 1.9 0 0 0-1.853-1.539h-6.3a1.9 1.9 0 0 0-1.853 1.539h-1.872a1.641 1.641 0 0 0-1.639 1.639v14.779a1.641 1.641 0 0 0 1.639 1.639h13.749a1.641 1.641 0 0 0 1.639-1.639v-14.779a1.641 1.641 0 0 0-1.639-1.639zm-3.724 1.026h-6.3a.67.67 0 0 1 0-1.339h6.3a.67.67 0 0 1 0 1.339zm4.138.613v14.779a.414.414 0 0 1-.414.413h-13.753a.413.413 0 0 1-.413-.413v-14.779a.413.413 0 0 1 .413-.413h2.048a1.9 1.9 0 0 0 1.677 1.025h6.3a1.9 1.9 0 0 0 1.676-1.025h2.048a.414.414 0 0 1 .414.413z" class="cls-1" data-name="Trazado 1668"/>
    </g>
</svg>
