<svg xmlns="http://www.w3.org/2000/svg" width="26.726" height="20.096" viewBox="0 0 26.726 20.096">
    <g id="ojo-apagado" transform="translate(.122 19.14)">
        <path id="Unión_1" fill="#0e3a89" stroke="#0e3a89" stroke-width="0.2px" d="M3.478 19.7a.551.551 0 0 1 0-.78l3.571-3.571a.551.551 0 0 1 .04-.04L18.462 3.93q.018-.02.039-.039l3.73-3.73a.552.552 0 0 1 .78.78l-3.235 3.235a26.772 26.772 0 0 1 6.574 5.4.545.545 0 0 1 0 .711c-.257.3-6.313 7.366-13.11 7.366a13.8 13.8 0 0 1-5.671-1.27L4.257 19.7a.552.552 0 0 1-.779 0zm9.767-3.149c5.455 0 10.634-5.2 11.945-6.62a25.9 25.9 0 0 0-6.223-4.941l-2.238 2.233a4.413 4.413 0 0 1-6.191 6.191l-2.129 2.13a12.728 12.728 0 0 0 4.835 1.003zm.878-3.375A3.31 3.31 0 0 0 15.948 8l-4.628 4.628a3.312 3.312 0 0 0 2.802.544zm-8.96 1.87A20.5 20.5 0 0 1 .1 10.244a.546.546 0 0 1 .031-.671c.258-.3 6.314-7.367 13.111-7.367a11.379 11.379 0 0 1 3.62.636.55.55 0 1 1-.352 1.042 10.314 10.314 0 0 0-3.268-.577c-5.5 0-10.706 5.27-11.975 6.649a20.159 20.159 0 0 0 4.5 4.165.554.554 0 0 1-.2 1 .549.549 0 0 1-.415-.083zm3.745-4.348a4.368 4.368 0 0 1 5.1-5.1v-.005a.551.551 0 1 1-.193 1.085 3.271 3.271 0 0 0-3.877 3.246A3.185 3.185 0 0 0 10 10.5a.551.551 0 0 1-.447.639.494.494 0 0 1-.1.009.553.553 0 0 1-.546-.454z" data-name="Unión 1" transform="translate(-.005 -19)"/>
    </g>
</svg>
