<svg xmlns="http://www.w3.org/2000/svg" width="18.698" height="26.513" viewBox="0 0 18.698 26.513">
    <defs>
        <style>
            .cls-1{fill:#0e3a89}
        </style>
    </defs>
    <g id="Grupo_1007" data-name="Grupo 1007" transform="translate(-95.654 -172.431)">
        <path id="Trazado_1624" d="M112.753 172.431h-15.5a1.6 1.6 0 0 0-1.6 1.6v23.316a1.6 1.6 0 0 0 1.6 1.6h12.667a.556.556 0 0 0 .394-.162l3.875-3.876a.553.553 0 0 0 .163-.394v-20.486a1.6 1.6 0 0 0-1.599-1.598zm-2.277 24.613v-1.49a.486.486 0 0 1 .486-.486h1.49zm-13.224-23.5h15.5a.486.486 0 0 1 .486.486v1.72H96.767v-1.72a.486.486 0 0 1 .485-.486zm-.486 23.8v-20.481h16.472v17.092h-2.277a1.6 1.6 0 0 0-1.6 1.6v2.277H97.252a.486.486 0 0 1-.485-.487z" class="cls-1" data-name="Trazado 1624"/>
        <path id="Trazado_1625" d="M99.489 182.108h7.288a.556.556 0 1 0 0-1.113h-7.288a.556.556 0 1 0 0 1.113z" class="cls-1" data-name="Trazado 1625" transform="translate(-.43 -1.124)"/>
        <path id="Trazado_1626" d="M110.441 182.108h1.882a.556.556 0 0 0 0-1.113h-1.882a.556.556 0 1 0 0 1.113z" class="cls-1" data-name="Trazado 1626" transform="translate(-1.868 -1.124)"/>
        <path id="Trazado_1627" d="M99.489 187.195h7.288a.556.556 0 1 0 0-1.113h-7.288a.556.556 0 1 0 0 1.113z" class="cls-1" data-name="Trazado 1627" transform="translate(-.43 -1.792)"/>
        <path id="Trazado_1628" d="M110.441 187.195h1.882a.556.556 0 0 0 0-1.113h-1.882a.556.556 0 1 0 0 1.113z" class="cls-1" data-name="Trazado 1628" transform="translate(-1.868 -1.792)"/>
        <path id="Trazado_1629" d="M107.334 191.726a.557.557 0 0 0-.557-.557h-7.288a.556.556 0 1 0 0 1.113h7.288a.557.557 0 0 0 .557-.556z" class="cls-1" data-name="Trazado 1629" transform="translate(-.43 -2.46)"/>
        <path id="Trazado_1630" d="M110.441 192.282h1.882a.556.556 0 0 0 0-1.113h-1.882a.556.556 0 1 0 0 1.113z" class="cls-1" data-name="Trazado 1630" transform="translate(-1.868 -2.46)"/>
        <path id="Trazado_1631" d="M111.806 195.943a.556.556 0 0 0 0-1.113h-5.3a.556.556 0 0 0 0 1.113z" class="cls-1" data-name="Trazado 1631" transform="translate(-1.351 -2.94)"/>
    </g>
</svg>
