<svg xmlns="http://www.w3.org/2000/svg" id="recuperar-contraseña" width="13.871" height="20.966" viewBox="0 0 13.871 20.966">
    <defs>
        <style>
            .cls-1{fill:#0e3a89}
        </style>
    </defs>
    <g id="Grupo_651" data-name="Grupo 651">
        <g id="Grupo_650" data-name="Grupo 650">
            <path id="Trazado_1473" d="M-200.594 204.994h-10.717v-2.835a4.414 4.414 0 0 1 4.412-4.416 4.414 4.414 0 0 1 4.094 2.761.631.631 0 0 0 .834.317.631.631 0 0 0 .335-.791 5.674 5.674 0 0 0-7.387-3.135 5.674 5.674 0 0 0-3.549 5.264v2.835h-.631a.631.631 0 0 0-.631.631v11.19a.631.631 0 0 0 .631.631h12.609a.631.631 0 0 0 .631-.631v-11.19a.631.631 0 0 0-.631-.631zm-.629 11.189h-11.35v-9.928h11.35z" class="cls-1" data-name="Trazado 1473" transform="translate(213.834 -196.48)"/>
        </g>
    </g>
    <g id="Grupo_653" data-name="Grupo 653" transform="translate(5.043 12.208)">
        <g id="Grupo_652" data-name="Grupo 652">
            <path id="Trazado_1474" d="M-184.216 260.537a1.891 1.891 0 0 0-2.414-1.153 1.891 1.891 0 0 0-1.153 2.413 1.891 1.891 0 0 0 1.153 1.153v1.377a.631.631 0 0 0 .659.6.631.631 0 0 0 .6-.6v-1.377a1.892 1.892 0 0 0 1.155-2.413zm-1.784 1.269a.631.631 0 0 1-.631-.631.631.631 0 0 1 .631-.631.631.631 0 0 1 .631.631.631.631 0 0 1-.63.632z" class="cls-1" data-name="Trazado 1474" transform="translate(187.891 -259.276)"/>
        </g>
    </g>
</svg>
