<svg xmlns="http://www.w3.org/2000/svg" width="14.664" height="14.897" viewBox="0 0 14.664 14.897">
    <path id="buscar" fill="#0e3a89" d="M15.425 13.569L11.81 9.882a5.927 5.927 0 0 0 1.439-3.867A6.081 6.081 0 0 0 7.116 0 6.081 6.081 0 0 0 .984 6.015a6.081 6.081 0 0 0 6.132 6.015 6.149 6.149 0 0 0 3.513-1.088l3.642 3.716a.811.811 0 0 0 1.131.022.775.775 0 0 0 .023-1.111zm-8.309-12a4.5 4.5 0 0 1 4.533 4.446 4.5 4.5 0 0 1-4.533 4.446 4.5 4.5 0 0 1-4.532-4.446 4.5 4.5 0 0 1 4.532-4.446z" transform="translate(-.984)"/>
</svg>
