<svg xmlns="http://www.w3.org/2000/svg" width="20.212" height="20.213" viewBox="0 0 20.212 20.213">
    <path id="Combined_Shape" fill="#0e3a89" stroke="#0e3a89" stroke-width="0.2px" d="M48.146 216.124a3.006 3.006 0 0 1-3-3v-12.01a3 3 0 0 1 3-3h1v-1.5a.5.5 0 0 1 1 0v1.5h10.007v-1.5a.5.5 0 0 1 1 0v1.5h1a3 3 0 0 1 3 3v12.008a3.006 3.006 0 0 1-3 3zm-2-3a2.005 2.005 0 0 0 2 2h14.008a2.005 2.005 0 0 0 2-2v-9.006H46.145zm0-12.008v2h18.01v-2a2 2 0 0 0-2-2h-1v1.5a.5.5 0 0 1-1 0v-1.5h-10.01v1.5a.5.5 0 0 1-1 0v-1.5h-1a2 2 0 0 0-2.001 1.998zm13.007 11.007a1.5 1.5 0 1 1 1.5 1.5 1.5 1.5 0 0 1-1.501-1.502zm1 0a.5.5 0 1 0 .5-.5.5.5 0 0 0-.5.498zm-6.5 0a1.5 1.5 0 1 1 1.5 1.5 1.5 1.5 0 0 1-1.5-1.5zm1 0a.5.5 0 1 0 .5-.5.5.5 0 0 0-.5.5zm-6.5 0a1.145 1.145 0 1 1-.007 0zm1 0a.5.5 0 1 0 .5-.5.5.5 0 0 0-.506.495v.005zm10-5a1.083 1.083 0 1 1-.006 0zm1 0a.5.5 0 1 0 .5-.5.5.5 0 0 0-.506.5zm-6.5 0a1.079 1.079 0 1 1-.01.007v-.007zm1 0a.5.5 0 1 0 .5-.5h-.015a.5.5 0 0 0-.5.5zm-6.5 0a1.072 1.072 0 1 1-.013.01v-.01zm1 0a.5.5 0 1 0 .505-.5h-.018a.5.5 0 0 0-.5.5z" data-name="Combined Shape" transform="translate(-45.044 -196.011)"/>
</svg>
