<svg xmlns="http://www.w3.org/2000/svg" width="22.051" height="23.252" viewBox="0 0 22.051 23.252">
    <defs>
        <style>
            .cls-1{fill:#0e3a89;stroke:#0e3a89;stroke-width:.2px}
        </style>
    </defs>
    <g id="depositar" transform="translate(-28.974 -26.512)">
        <path id="Trazado_1" d="M50.547 31.8h-3.184v-4.637a.412.412 0 0 0-.167-.328.378.378 0 0 0-.353-.051l-3.875 1.431-1.442-1.488a.375.375 0 0 0-.544 0l-3.309 3.437-5.445 1.636a.393.393 0 0 0-.364.419v8.078a4.9 4.9 0 0 0-2.788 4.451 4.828 4.828 0 0 0 3.586 4.735 4.61 4.61 0 0 0 5.251-2.54h12.634a.364.364 0 0 0 .269-.113.4.4 0 0 0 .109-.279V32.215a.4.4 0 0 0-.378-.415zm-3.954-4.065V31.8h-.14l-2.874-2.962zm-5.337-.17l4.1 4.235H37.19zm-4.709 3.771l-.447.464H35zM33.74 48.814a4.073 4.073 0 1 1 3.907-4.069 3.991 3.991 0 0 1-3.907 4.069zm16.415-6.839h-2.517a2.584 2.584 0 0 1 0-5.165h2.517zm0-5.967h-2.517a3.387 3.387 0 0 0 0 6.769h2.517v3.359H38.22a5.031 5.031 0 0 0-.724-4.3 4.613 4.613 0 0 0-3.745-1.964 4.269 4.269 0 0 0-1.118.146V32.6h17.522z" class="cls-1" data-name="Trazado 1"/>
        <path id="Trazado_2" d="M376.6 254.8a1.415 1.415 0 1 0 1.415-1.415 1.415 1.415 0 0 0-1.415 1.415zm2.028 0a.613.613 0 1 1-.613-.613.613.613 0 0 1 .613.613z" class="cls-1" data-name="Trazado 2" transform="translate(-331.007 -215.402)"/>
        <path id="Trazado_3" d="M96.476 325.454a.757.757 0 0 1 .756.756.4.4 0 1 0 .8 0 1.561 1.561 0 0 0-1.208-1.518v-.292a.4.4 0 0 0-.8 0v.318a1.558 1.558 0 0 0 .452 3.049.756.756 0 0 1 .058 1.51.392.392 0 0 0-.183-.008.757.757 0 0 1-.631-.745.4.4 0 0 0-.8 0 1.561 1.561 0 0 0 1.107 1.491v.349a.4.4 0 1 0 .8 0v-.323a1.558 1.558 0 0 0-.35-3.076.756.756 0 0 1 0-1.513z" class="cls-1" data-name="Trazado 3" transform="translate(-62.542 -282.472)"/>
    </g>
</svg>
