<svg xmlns="http://www.w3.org/2000/svg" width="21.88" height="19.689" viewBox="0 0 21.88 19.689">
    <defs>
        <style>
            .cls-1{fill:#0e3a89}
        </style>
    </defs>
    <g id="Grupo_1089" data-name="Grupo 1089" transform="translate(-440.096 -119.312)">
        <path id="Trazado_1673" d="M461.462 137.93h-1.082v-12.478a.537.537 0 0 0-.536-.535h-6.671v-5.071a.536.536 0 0 0-.536-.534h-10.41a.537.537 0 0 0-.536.534v18.084h-1.06a.536.536 0 0 0 0 1.071h20.809a.536.536 0 0 0 .022-1.071zm-18.7 0v-17.549h9.338v17.549zm10.414 0v-11.944h6.136v11.944z" class="cls-1" data-name="Trazado 1673"/>
        <path id="Trazado_1674" d="M457.438 126.946h-2.4a.537.537 0 0 0-.535.534v2.4a.536.536 0 0 0 .535.536h2.4a.539.539 0 0 0 .537-.536v-2.4a.538.538 0 0 0-.537-.534zm-1.864 2.4v-1.332h1.332v1.332z" class="cls-1" data-name="Trazado 1674"/>
        <path id="Trazado_1675" d="M457.438 131.375h-2.4a.537.537 0 0 0-.535.534v2.4a.537.537 0 0 0 .535.536h2.4a.539.539 0 0 0 .537-.536v-2.4a.537.537 0 0 0-.537-.534zm-1.864 2.4v-1.333h1.332v1.333z" class="cls-1" data-name="Trazado 1675"/>
        <path id="Trazado_1676" d="M450.633 126.946h-2.4a.537.537 0 0 0-.535.534v2.4a.536.536 0 0 0 .535.536h2.4a.536.536 0 0 0 .535-.536v-2.4a.537.537 0 0 0-.535-.534zm-.534 1.07v1.332h-1.331v-1.332z" class="cls-1" data-name="Trazado 1676"/>
        <path id="Trazado_1677" d="M450.633 122.518h-2.4a.534.534 0 0 0-.534.534v2.4a.534.534 0 0 0 .534.534h2.4a.536.536 0 0 0 .535-.534v-2.4a.536.536 0 0 0-.535-.534zm-.534 1.068v1.332h-1.331v-1.333z" class="cls-1" data-name="Trazado 1677"/>
        <path id="Trazado_1678" d="M450.633 131.375h-2.4a.535.535 0 0 0-.535.534v2.4a.537.537 0 0 0 .535.536h2.4a.537.537 0 0 0 .535-.536v-2.4a.537.537 0 0 0-.535-.534zm-.534 1.07v1.333h-1.331v-1.333z" class="cls-1" data-name="Trazado 1678"/>
        <path id="Trazado_1679" d="M446.628 126.946h-2.4a.535.535 0 0 0-.535.534v2.4a.536.536 0 0 0 .535.536h2.4a.536.536 0 0 0 .535-.536v-2.4a.537.537 0 0 0-.535-.534zm-.533 1.067v1.332h-1.331v-1.332z" class="cls-1" data-name="Trazado 1679"/>
        <path id="Trazado_1680" d="M446.629 122.518h-2.4a.535.535 0 0 0-.535.534v2.4a.535.535 0 0 0 .535.534h2.4a.533.533 0 0 0 .534-.534v-2.4a.533.533 0 0 0-.534-.534zm-.534 1.067v1.332h-1.331v-1.331z" class="cls-1" data-name="Trazado 1680"/>
        <path id="Trazado_1681" d="M446.628 131.375h-2.4a.535.535 0 0 0-.535.534v2.4a.537.537 0 0 0 .535.536h2.4a.537.537 0 0 0 .535-.536v-2.4a.535.535 0 0 0-.535-.534zm-.533 1.066v1.334h-1.331v-1.334z" class="cls-1" data-name="Trazado 1681"/>
    </g>
</svg>
