<svg xmlns="http://www.w3.org/2000/svg" width="17.807" height="21.878" viewBox="0 0 17.807 21.878">
    <g id="eliminar" transform="translate(-1158.576 -2121.733)">
        <path id="Trazado_1522" fill="#0e3a89" stroke="#0e3a89" stroke-width="0.1px" d="M51.85 18.548a.51.51 0 0 0 .51-.51V8.4a.51.51 0 0 0-1.02 0v9.639a.51.51 0 0 0 .51.509zm-6.018 0a.51.51 0 0 0 .51-.51V8.4a.51.51 0 1 0-1.02 0v9.639a.51.51 0 0 0 .51.509zm11.836-14.2a1.949 1.949 0 0 0-1.932-1.7h-2.611v-.635A2 2 0 0 0 51.105 0h-4.528a2 2 0 0 0-2.02 2.015v.638h-2.611a1.948 1.948 0 0 0-.5 3.831v12.564a2.814 2.814 0 0 0 .748 1.941 2.511 2.511 0 0 0 1.822.788h9.65a2.511 2.511 0 0 0 1.822-.788 2.814 2.814 0 0 0 .748-1.941V6.482a1.948 1.948 0 0 0 1.432-2.135zM45.577 2.013a.983.983 0 0 1 1-.995h4.529a.983.983 0 0 1 1 .995v.638h-6.529zm9.639 17.034a1.615 1.615 0 0 1-1.55 1.709h-9.65a1.615 1.615 0 0 1-1.55-1.709V6.527h12.75zm.52-13.541h-13.79a.918.918 0 1 1 0-1.836h13.79a.918.918 0 0 1 0 1.836zm-6.9 13.041a.51.51 0 0 0 .51-.51V8.4a.51.51 0 1 0-1.02 0v9.639a.51.51 0 0 0 .515.509z" data-name="Trazado 1522" transform="translate(1118.639 2121.784)"/>
    </g>
</svg>
