<svg xmlns="http://www.w3.org/2000/svg" width="20.055" height="20.037" viewBox="0 0 20.055 20.037">
    <defs>
        <style>
            .cls-1{fill:#0e3a89}
        </style>
    </defs>
    <g id="Grupo_1088" data-name="Grupo 1088" transform="translate(-171.107 -224.172)">
        <path id="Trazado_1669" d="M191.157 225.456a1.273 1.273 0 0 0-.373-.909 1.29 1.29 0 0 0-.9-.372h-3.291l-.015.013a1.028 1.028 0 0 0-.545.3l-6.78 6.78a6.567 6.567 0 1 0-1.94 12.933 3.493 3.493 0 0 0 .368.01 6.566 6.566 0 0 0 6.376-8.139l.442-.441a.817.817 0 0 0 .238-.657l-.111-1.215 1.07.1a.8.8 0 0 0 .656-.237.821.821 0 0 0 .238-.656l-.1-1.071 1.071.1a.821.821 0 0 0 .893-.892l-.1-1.076 1.223.111a.822.822 0 0 0 .657-.245l.656-.674a.939.939 0 0 0 .267-.662zm-3.85 3.513a.821.821 0 0 0-.237.654l.1 1.075-1.071-.1a.807.807 0 0 0-.656.238.821.821 0 0 0-.238.656l.1 1.07-1.071-.1a.824.824 0 0 0-.893.893l.139 1.527-.558.557a.625.625 0 0 0-.155.625 5.32 5.32 0 1 1-5.094-3.75 5.413 5.413 0 0 1 1.585.24.615.615 0 0 0 .624-.155l6.985-6.982 3.047.032.005 2.977-.426.438-1.526-.137a.833.833 0 0 0-.66.242z" class="cls-1" data-name="Trazado 1669"/>
        <path id="Trazado_1670" d="M175.886 236.634a2.208 2.208 0 0 0 .842 4.248 2.208 2.208 0 1 0-.846-4.248zm1.642 2.573a.96.96 0 1 1-.8-1.493.96.96 0 0 1 .8 1.493z" class="cls-1" data-name="Trazado 1670"/>
        <path id="Trazado_1671" d="M185.2 228.642a.521.521 0 0 0-.5.137l-3.37 3.37a.512.512 0 0 0-.113.561.517.517 0 0 0 .843.169l3.367-3.367a.516.516 0 0 0-.228-.87z" class="cls-1" data-name="Trazado 1671"/>
        <path id="Trazado_1672" d="M186.424 227.228a.624.624 0 1 0 .623.623.623.623 0 0 0-.623-.623z" class="cls-1" data-name="Trazado 1672"/>
    </g>
</svg>
