<svg xmlns="http://www.w3.org/2000/svg" width="17.7" height="19.308" viewBox="0 0 17.7 19.308">
    <defs>
        <style>
            .cls-1{fill:#0e3a89}
        </style>
    </defs>
    <g id="Grupo_1090" data-name="Grupo 1090" transform="translate(-161.022 -119.039)">
        <path id="Trazado_1682" d="M176.558 133.41a5.411 5.411 0 0 1-1.859-4.082v-.876a.6.6 0 1 0-1.207 0v.876a6.615 6.615 0 0 0 2.336 5.046l.034.027a.193.193 0 0 1 .044.125.2.2 0 0 1-.2.2H162.43a.2.2 0 0 1-.159-.326l.036-.027a6.619 6.619 0 0 0 2.335-5.046v-2.244a4.431 4.431 0 0 1 4.425-4.425 1.324 1.324 0 0 1 .2.007.6.6 0 1 0 .2-1.19 2.406 2.406 0 0 0-.4-.024 5.639 5.639 0 0 0-5.632 5.632v2.244a5.408 5.408 0 0 1-1.856 4.08.436.436 0 0 0-.065.048 1.408 1.408 0 0 0 .916 2.478h3.681a3.017 3.017 0 0 0 5.912 0h3.682a1.407 1.407 0 0 0 .915-2.477.48.48 0 0 0-.062-.046zm-7.491 3.731a1.808 1.808 0 0 1-1.7-1.207h3.4a1.808 1.808 0 0 1-1.7 1.207z" class="cls-1" data-name="Trazado 1682"/>
        <path id="Trazado_1683" d="M174.7 119.039a4.022 4.022 0 1 0 4.023 4.022 4.027 4.027 0 0 0-4.023-4.022zm0 6.838a2.816 2.816 0 1 1 2.816-2.816 2.819 2.819 0 0 1-2.816 2.816z" class="cls-1" data-name="Trazado 1683"/>
    </g>
</svg>
