<svg xmlns="http://www.w3.org/2000/svg" width="20.25" height="20.25" viewBox="0 0 20.25 20.25">
    <path id="recaudaciones" fill="#0e3a89" stroke="#0e3a89" stroke-width="0.25px" d="M8.51 17.866h-4.6a1.822 1.822 0 0 1-1.12-3.242 1.828 1.828 0 0 1 0-2.846 1.828 1.828 0 0 1 0-2.846 1.821 1.821 0 0 1 1.116-3.24h1.019a1.834 1.834 0 0 1 0-2.056H1.8A1.818 1.818 0 0 1 1.8 0h9.57a1.821 1.821 0 0 1 1.481 2.846h3.128a1.818 1.818 0 0 1 0 3.636H14.96a1.876 1.876 0 0 1 .174.323A6.729 6.729 0 0 1 13.36 20a6.63 6.63 0 0 1-4.85-2.134zM7.5 13.281a5.86 5.86 0 1 0 5.86-5.928 5.9 5.9 0 0 0-5.86 5.928zm-4.609 2.766a1.023 1.023 0 0 0 1.015 1.028h3.976a6.7 6.7 0 0 1-.938-2.055H3.906a1.022 1.022 0 0 0-1.015 1.027zm0-2.846a1.023 1.023 0 0 0 1.015 1.028h2.879a6.969 6.969 0 0 1-.067-.949 6.818 6.818 0 0 1 .091-1.106h-2.9A1.022 1.022 0 0 0 2.891 13.2zm0-2.846a1.023 1.023 0 0 0 1.015 1.028h3.083a6.728 6.728 0 0 1 1-2.056H3.906a1.023 1.023 0 0 0-1.015 1.029zm0-2.846a1.023 1.023 0 0 0 1.015 1.028H8.66a6.558 6.558 0 0 1 4.7-1.976c.177 0 .365.008.56.024a1 1 0 0 0-.443-.1H3.906A1.023 1.023 0 0 0 2.891 7.51zm2.5-2.846a1.023 1.023 0 0 0 1.015 1.029h9.571a1.028 1.028 0 0 0 0-2.056H6.406a1.023 1.023 0 0 0-1.015 1.028zM.781 1.818A1.023 1.023 0 0 0 1.8 2.846h9.57a1.028 1.028 0 0 0 0-2.056H1.8A1.023 1.023 0 0 0 .781 1.818zm10.731 16.144A4.626 4.626 0 0 1 9.7 16.176a5.333 5.333 0 0 1-.7-2.66 5.391 5.391 0 0 1 .517-2.316.323.323 0 0 1 .461-.157.4.4 0 0 1 .14.513 4.569 4.569 0 0 0-.437 1.958 4.26 4.26 0 0 0 2.126 3.763.4.4 0 0 1 .159.507.34.34 0 0 1-.306.216.305.305 0 0 1-.148-.038zm5.511-2.007a.4.4 0 0 1-.14-.513 4.569 4.569 0 0 0 .437-1.958 4.26 4.26 0 0 0-2.126-3.763.4.4 0 0 1-.159-.507.326.326 0 0 1 .455-.177 4.626 4.626 0 0 1 1.81 1.787 5.333 5.333 0 0 1 .7 2.66 5.391 5.391 0 0 1-.517 2.314.337.337 0 0 1-.3.2.311.311 0 0 1-.16-.043zm-3.88-.322v-.158A1.451 1.451 0 0 1 12 14.082a.357.357 0 1 1 .715 0 .791.791 0 1 0 .786-.7A1.469 1.469 0 0 1 12 11.95a1.451 1.451 0 0 1 1.143-1.392v-.191a.357.357 0 1 1 .715 0v.191A1.451 1.451 0 0 1 15 11.95a.357.357 0 1 1-.715 0 .791.791 0 1 0-.786.7A1.47 1.47 0 0 1 15 14.082a1.451 1.451 0 0 1-1.143 1.392v.158a.357.357 0 1 1-.715 0z" transform="translate(.125 .125)"/>
</svg>
