<svg xmlns="http://www.w3.org/2000/svg" id="recuperar-usuario" width="17.247" height="20.66" viewBox="0 0 17.247 20.66">
    <defs>
        <style>
            .cls-1{fill:#0e3a89}
        </style>
    </defs>
    <path id="Trazado_1475" d="M-294.991 207.647a4.816 4.816 0 0 0 3.519-1.46 4.815 4.815 0 0 0 1.46-3.518 4.815 4.815 0 0 0-1.46-3.517 4.974 4.974 0 0 0-7.032 0 4.815 4.815 0 0 0-1.46 3.517 4.815 4.815 0 0 0 1.46 3.519 4.816 4.816 0 0 0 3.513 1.459zm-2.662-7.638a3.764 3.764 0 0 1 5.323 0 3.6 3.6 0 0 1 1.1 2.662 3.6 3.6 0 0 1-1.1 2.662 3.763 3.763 0 0 1-5.322 0 3.6 3.6 0 0 1-1.1-2.662 3.6 3.6 0 0 1 1.1-2.662z" class="cls-1" data-name="Trazado 1475" transform="translate(303.482 -197.697)"/>
    <path id="Trazado_1476" d="M-301.4 256.464a12.286 12.286 0 0 0-.167-1.306 10.3 10.3 0 0 0-.321-1.312 6.477 6.477 0 0 0-.54-1.223 4.608 4.608 0 0 0-.813-1.062 3.581 3.581 0 0 0-1.169-.734 4.036 4.036 0 0 0-1.491-.265 1.513 1.513 0 0 0-.808.342c-.243.158-.531.341-.843.543a4.83 4.83 0 0 1-1.091.48 4.233 4.233 0 0 1-2.667 0 4.816 4.816 0 0 1-1.089-.48c-.313-.2-.6-.383-.843-.544a1.513 1.513 0 0 0-.808-.342 4.036 4.036 0 0 0-1.491.265 3.583 3.583 0 0 0-1.169.734 4.606 4.606 0 0 0-.813 1.062 6.5 6.5 0 0 0-.54 1.225 10.352 10.352 0 0 0-.321 1.312 12.2 12.2 0 0 0-.167 1.306c-.028.4-.041.805-.041 1.219a3.43 3.43 0 0 0 1.019 2.6 3.667 3.667 0 0 0 2.626.958H-305a3.666 3.666 0 0 0 2.625-.958 3.428 3.428 0 0 0 1.019-2.6c-.001-.416-.016-.826-.044-1.22zm-1.812 2.939a2.469 2.469 0 0 1-1.791.624h-9.952a2.47 2.47 0 0 1-1.79-.624 2.24 2.24 0 0 1-.644-1.725c0-.387.013-.77.039-1.136a11 11 0 0 1 .151-1.175 9.129 9.129 0 0 1 .283-1.157 5.308 5.308 0 0 1 .439-1 3.415 3.415 0 0 1 .6-.783 2.382 2.382 0 0 1 .778-.483 2.783 2.783 0 0 1 .954-.184c.042.022.118.065.24.145.249.162.531.348.853.549a6 6 0 0 0 1.368.612 5.44 5.44 0 0 0 3.411 0 6.007 6.007 0 0 0 1.369-.612c.325-.207.6-.387.852-.549a2.673 2.673 0 0 1 .24-.145 2.784 2.784 0 0 1 .954.184 2.386 2.386 0 0 1 .778.483 3.4 3.4 0 0 1 .6.784 5.267 5.267 0 0 1 .439 1 9.056 9.056 0 0 1 .283 1.157 11.073 11.073 0 0 1 .151 1.175c.025.365.039.747.039 1.136a2.24 2.24 0 0 1-.639 1.724z" class="cls-1" data-name="Trazado 1476" transform="translate(318.597 -240.58)"/>
</svg>
