<svg xmlns="http://www.w3.org/2000/svg" width="21.558" height="20.688" viewBox="0 0 21.558 20.688">
    <path id="salir" fill="#0e3a89" d="M23.117 128.511h11.866l-2.557 2.557a.705.705 0 0 0 .98 1.014l.018-.017 3.76-3.761a.7.7 0 0 0 .077-.094l.011-.013a.345.345 0 0 0 .022-.038l.013-.022a.186.186 0 0 0 .015-.032l.015-.032.01-.025a.411.411 0 0 0 .014-.042v-.017c0-.006.009-.034.012-.051a.694.694 0 0 0-.039-.4l-.029-.061a.7.7 0 0 0-.13-.175l-3.756-3.756a.705.705 0 1 0-1.015.979l.018.018 2.561 2.553H23.117a.705.705 0 0 0 0 1.41zm1.286-3.572a.706.706 0 0 0 .915-.4 8.93 8.93 0 1 1 0 6.535.707.707 0 0 0-1.316.516 10.341 10.341 0 1 0 0-7.567.705.705 0 0 0 .4.914z" transform="translate(-22.412 -117.464)"/>
</svg>
