<svg xmlns="http://www.w3.org/2000/svg" width="21.511" height="20.646" viewBox="0 0 21.511 20.646">
    <path id="servicios-afip" fill="#0e3a89" stroke="#0e3a89" stroke-width="0.2px" d="M56.529 375.927c-.031-.016-.047-.047-.078-.047a.977.977 0 0 1-.625-1.469c.391-.875.8-1.751 1.2-2.642q3.494-7.62 6.971-15.256a1.548 1.548 0 0 1 1.579-1.016c1.3.031 2.579.016 3.876 0a1.34 1.34 0 0 1 1.36.891c1.516 3.392 3.017 6.784 4.533 10.176.453 1.016.938 2.032 1.376 3.048a3.39 3.39 0 0 1 .281 1.172 1.633 1.633 0 0 1-1.735 1.766q-3 .023-6 0a.612.612 0 0 0-.688.453c-.25.625-.563 1.235-.813 1.86a1.72 1.72 0 0 1-1.125 1.079c-3.406-.015-6.751-.015-10.112-.015zm.25-1.11a3.225 3.225 0 0 0 .328.031h9.144a.49.49 0 0 0 .516-.344c1.782-4.017 3.564-8.019 5.346-12.036a.736.736 0 0 0 0-.547c-.719-1.673-1.454-3.345-2.188-5.018a.528.528 0 0 0-.547-.36c-1.3.016-2.579.016-3.876 0a.567.567 0 0 0-.594.391c-.219.485-.438.985-.672 1.469q-3.658 8.019-7.331 16.037a3.493 3.493 0 0 0-.126.377zm16.053-11.254h-.094c-1.157 2.626-2.329 5.236-3.5 7.878.109.016.156.031.188.031H75.3a.648.648 0 0 0 .672-.7 1.756 1.756 0 0 0-.156-.641c-.938-2.11-1.907-4.2-2.86-6.3-.03-.081-.077-.175-.124-.268z" transform="translate(-55.596 -355.396)"/>
</svg>
