<svg xmlns="http://www.w3.org/2000/svg" width="14.152" height="13.06" viewBox="0 0 14.152 13.06">
    <defs>
        <style>
            .cls-1{fill:#0e3a89}
        </style>
    </defs>
    <g id="Grupo_1006" data-name="Grupo 1006" transform="translate(-2.424 -2.97)">
        <path id="Trazado_1578" d="M77.865 81.546h-8.431a1.727 1.727 0 0 0-3.3 0h-1.313a.566.566 0 0 0 0 1.132h1.316a1.727 1.727 0 0 0 3.3 0h8.431a.566.566 0 0 0 0-1.132zm-10.08 1.212a.646.646 0 1 1 .632-.646.64.64 0 0 1-.632.646z" class="cls-1" data-name="Trazado 1578" transform="translate(-61.843 -77.364)"/>
        <path id="Trazado_1579" d="M77.865 210.079h-1.316a1.727 1.727 0 0 0-3.3 0h-8.428a.566.566 0 0 0 0 1.132h8.431a1.727 1.727 0 0 0 3.3 0h1.316a.566.566 0 0 0 0-1.132zm-2.965 1.212a.646.646 0 1 1 .632-.646.64.64 0 0 1-.632.646z" class="cls-1" data-name="Trazado 1579" transform="translate(-61.843 -201.145)"/>
        <path id="Trazado_1580" d="M77.865 338.612h-6.06a1.727 1.727 0 0 0-3.3 0h-3.684a.566.566 0 0 0 0 1.132h3.688a1.727 1.727 0 0 0 3.3 0h6.06a.566.566 0 0 0 0-1.132zm-7.708 1.212a.646.646 0 1 1 .632-.646.64.64 0 0 1-.632.646z" class="cls-1" data-name="Trazado 1580" transform="translate(-61.843 -324.926)"/>
    </g>
</svg>
