<svg xmlns="http://www.w3.org/2000/svg" width="20" height="20" viewBox="0 0 20 20">
    <path id="Trazado_1684" fill="#0e3a89" d="M136.11 234.109a10 10 0 1 0-.631 14.72h.006l.02-.015a9.994 9.994 0 0 0 3.534-7.629 9.935 9.935 0 0 0-2.929-7.076zm-12.563 13.874a5.592 5.592 0 0 1 5.41-6.8h.165a5.592 5.592 0 0 1 5.41 6.8 8.72 8.72 0 0 1-10.985 0zm5.492-8.053a2.5 2.5 0 1 1 2.5-2.5 2.5 2.5 0 0 1-2.5 2.501zm6.865 6.663a6.842 6.842 0 0 0-4.532-6.251 3.749 3.749 0 1 0-4.666 0 6.839 6.839 0 0 0-4.532 6.251 8.75 8.75 0 1 1 13.729 0z" data-name="Trazado 1684" transform="translate(-119.039 -231.18)"/>
</svg>
