<svg xmlns="http://www.w3.org/2000/svg" width="21.422" height="19.974" viewBox="0 0 21.422 19.974">
    <path id="Trazado_1685" fill="#0e3a89" d="M111.406 232.8a3.95 3.95 0 0 0-6.277.834A9.532 9.532 0 0 0 93.4 248.21a9.666 9.666 0 0 0 1.125 1.128 9.534 9.534 0 0 0 12.309.019h.006l.019-.015a9.666 9.666 0 0 0 1.125-1.128 9.524 9.524 0 0 0 1.866-8.8 3.926 3.926 0 0 0 1.785-1.205 4 4 0 0 0-.23-5.406zm-5.475 15.754a8.316 8.316 0 0 1-10.476 0 5.334 5.334 0 0 1 5.159-6.487h.157a5.334 5.334 0 0 1 5.16 6.487zm-7.622-10.064a2.384 2.384 0 1 1 2.384 2.384 2.387 2.387 0 0 1-2.384-2.387zm8.931 8.739a6.523 6.523 0 0 0-4.322-5.961 3.576 3.576 0 1 0-4.45 0 6.523 6.523 0 0 0-4.322 5.961 8.326 8.326 0 0 1 10.536-12.473 3.99 3.99 0 0 0 3.9 4.871c.028 0 .055-.006.083-.007a8.254 8.254 0 0 1-1.421 7.609zm3.5-9.778a2.829 2.829 0 1 1 .665-1.823 2.847 2.847 0 0 1-.664 1.82zm-1.332-3.042l-1.272 1.3-.508-.473a.549.549 0 0 0-.361-.135.5.5 0 0 0-.325.872l.866.808a.51.51 0 0 0 .344.135.489.489 0 0 0 .054 0 .5.5 0 0 0 .305-.148l1.615-1.652a.5.5 0 0 0-.718-.7z" data-name="Trazado 1685" transform="translate(-91.156 -231.626)"/>
</svg>
